<svg width="23" height="22" viewBox="0 0 23 22" fill="none" xmlns="http://www.w3.org/2000/svg">
<path d="M4.59536 8.44335C2.46397 9.48199 0.995361 11.6695 0.995361 14.2C0.995361 17.7346 3.86074 20.6 7.39536 20.6C10.93 20.6 13.7954 17.7346 13.7954 14.2C13.7954 13.929 13.7785 13.662 13.7458 13.4M11.7954 19.4922C12.821 20.1913 14.0605 20.6 15.3954 20.6C18.93 20.6 21.7954 17.7346 21.7954 14.2C21.7954 11.4504 20.0615 9.10585 17.6274 8.19999M17.7954 7.79999C17.7954 11.3346 14.93 14.2 11.3954 14.2C7.86074 14.2 4.99536 11.3346 4.99536 7.79999C4.99536 4.26537 7.86074 1.39999 11.3954 1.39999C14.93 1.39999 17.7954 4.26537 17.7954 7.79999Z" stroke="#192965"/>
</svg>
