<svg width="32" height="31" viewBox="0 0 32 31" fill="none" xmlns="http://www.w3.org/2000/svg">
<path d="M9.91205 17.25H18.0787" stroke="#192965" stroke-width="1.5" stroke-miterlimit="10" stroke-linecap="round" stroke-linejoin="round"/>
<path d="M8.16201 26.5017H12.8287L18.0204 29.955C18.7904 30.4683 19.8287 29.92 19.8287 28.9867V26.5017C23.3287 26.5017 25.662 24.1683 25.662 20.6683V13.6683C25.662 10.1683 23.3287 7.83499 19.8287 7.83499H8.16201C4.66201 7.83499 2.32867 10.1683 2.32867 13.6683V20.6683C2.32867 24.1683 4.66201 26.5017 8.16201 26.5017Z" stroke="#192965" stroke-width="1.5" stroke-miterlimit="10" stroke-linecap="round" stroke-linejoin="round"/>
<circle cx="24.4954" cy="7.5" r="7.5" fill="#2563EB"/>
<path d="M22.6274 10.12C22.2194 10.12 21.8594 10.0333 21.5474 9.86C21.2354 9.684 20.9914 9.44 20.8154 9.128C20.642 8.816 20.5554 8.456 20.5554 8.048V6.192C20.5554 5.784 20.642 5.424 20.8154 5.112C20.9914 4.8 21.2354 4.55733 21.5474 4.384C21.8594 4.208 22.2194 4.12 22.6274 4.12C23.0354 4.12 23.394 4.208 23.7034 4.384C24.0154 4.55733 24.2594 4.8 24.4354 5.112C24.6114 5.424 24.6994 5.784 24.6994 6.192V8.048C24.6994 8.456 24.6114 8.816 24.4354 9.128C24.2594 9.44 24.0154 9.684 23.7034 9.86C23.394 10.0333 23.0354 10.12 22.6274 10.12ZM22.6274 9.204C22.83 9.204 23.014 9.156 23.1794 9.06C23.3447 8.96133 23.4754 8.83067 23.5714 8.668C23.6674 8.50267 23.7154 8.31867 23.7154 8.116V6.12C23.7154 5.91467 23.6674 5.73067 23.5714 5.568C23.4754 5.40267 23.3447 5.272 23.1794 5.176C23.014 5.07733 22.83 5.028 22.6274 5.028C22.4247 5.028 22.2407 5.07733 22.0754 5.176C21.91 5.272 21.7794 5.40267 21.6834 5.568C21.5874 5.73067 21.5394 5.91467 21.5394 6.12V8.116C21.5394 8.31867 21.5874 8.50267 21.6834 8.668C21.7794 8.83067 21.91 8.96133 22.0754 9.06C22.2407 9.156 22.4247 9.204 22.6274 9.204ZM27.469 10.108C27.181 10.108 26.909 10.052 26.653 9.94C26.397 9.828 26.1743 9.66933 25.985 9.464C25.7983 9.25867 25.6637 9.016 25.581 8.736L26.513 8.484C26.5797 8.71333 26.701 8.89067 26.877 9.016C27.0557 9.13867 27.2517 9.19867 27.465 9.196C27.6543 9.196 27.8237 9.152 27.973 9.064C28.1223 8.976 28.2397 8.85733 28.325 8.708C28.4103 8.556 28.453 8.38667 28.453 8.2C28.453 7.91467 28.361 7.676 28.177 7.484C27.993 7.292 27.7557 7.196 27.465 7.196C27.377 7.196 27.2903 7.208 27.205 7.232C27.1223 7.256 27.0423 7.28933 26.965 7.332L26.525 6.572L28.461 4.916L28.545 5.148H25.805V4.24H29.337V5.152L27.781 6.648L27.773 6.364C28.1223 6.388 28.4197 6.48533 28.665 6.656C28.913 6.82667 29.1023 7.04667 29.233 7.316C29.3663 7.58533 29.433 7.88 29.433 8.2C29.433 8.56267 29.3437 8.888 29.165 9.176C28.989 9.464 28.7517 9.692 28.453 9.86C28.157 10.0253 27.829 10.108 27.469 10.108Z" fill="#F8F9FC"/>
</svg>
