<svg width="21" height="25" viewBox="0 0 21 25" fill="none" xmlns="http://www.w3.org/2000/svg">
<circle cx="10.5042" cy="6.49103" r="5.57437" stroke="#192965" stroke-width="1.5" stroke-linecap="round" stroke-linejoin="round"/>
<path fill-rule="evenodd" clip-rule="evenodd" d="M1.66207 19.8183C1.66057 19.4264 1.74821 19.0393 1.91836 18.6863C2.4523 17.6184 3.95802 17.0524 5.20745 16.7961C6.10854 16.6039 7.02207 16.4754 7.94124 16.4117C9.64303 16.2622 11.3546 16.2622 13.0564 16.4117C13.9755 16.4761 14.889 16.6046 15.7902 16.7961C17.0396 17.0524 18.5454 17.565 19.0793 18.6863C19.4215 19.4059 19.4215 20.2413 19.0793 20.9609C18.5454 22.0822 17.0396 22.5948 15.7902 22.8404C14.8902 23.0406 13.9763 23.1727 13.0564 23.2355C11.6713 23.3529 10.2797 23.3743 8.89166 23.2996C8.5713 23.2996 8.26161 23.2996 7.94124 23.2355C7.02479 23.1735 6.11442 23.0414 5.21813 22.8404C3.95802 22.5948 2.46298 22.0822 1.91836 20.9609C1.74908 20.6038 1.66153 20.2135 1.66207 19.8183Z" stroke="#192965" stroke-width="1.5" stroke-linecap="round" stroke-linejoin="round"/>
</svg>
